<?xml version="1.0" standalone="no"?>
<!DOCTYPE svg PUBLIC "-//W3C//DTD SVG 20010904//EN"
 "http://www.w3.org/TR/2001/REC-SVG-20010904/DTD/svg10.dtd">
<svg version="1.0" xmlns="http://www.w3.org/2000/svg"
 width="50.000000pt" height="45.000000pt" viewBox="0 0 50.000000 45.000000"
 preserveAspectRatio="xMidYMid meet">

<g transform="translate(0.000000,45.000000) scale(0.100000,-0.100000)"
fill="#000000" stroke="none">
<path d="M191 434 c-164 -45 -239 -227 -144 -352 50 -67 139 -93 191 -56 42
29 23 54 -70 89 -26 9 -54 28 -63 41 -34 52 -5 138 62 184 51 35 143 35 192 1
59 -42 76 -117 45 -207 -17 -49 -13 -64 10 -45 12 10 14 8 9 -11 -5 -23 -5
-23 16 2 33 40 54 115 49 176 -11 135 -151 219 -297 178z"/>
</g>
</svg>
